<svg xmlns="http://www.w3.org/2000/svg" xmlns:xlink="http://www.w3.org/1999/xlink" viewBox="0,0,256,256" width="50px" height="50px" fill-rule="nonzero"><g fill-opacity="0" fill="#000000" fill-rule="nonzero" stroke="none" stroke-width="1" stroke-linecap="butt" stroke-linejoin="miter" stroke-miterlimit="10" stroke-dasharray="" stroke-dashoffset="0" font-family="none" font-weight="none" font-size="none" text-anchor="none" style="mix-blend-mode: normal"><path d="M0,256v-256h256v256z" id="bgRectangle"></path></g><g fill="#000000" fill-rule="nonzero" stroke="none" stroke-width="none" stroke-linecap="butt" stroke-linejoin="none" stroke-miterlimit="10" stroke-dasharray="" stroke-dashoffset="0" font-family="none" font-weight="none" font-size="none" text-anchor="none" style="mix-blend-mode: normal"><path transform="scale(5.12,5.12)" d="M40.4375,7.96484l-1.30859,1.54492c-3.735,-3.41 -8.68591,-5.50977 -14.12891,-5.50977c-11.579,0 -21,9.421 -21,21c0,11.579 9.421,21 21,21c11.579,0 21,-9.421 21,-21c0,-3.94 -1.11086,-7.61748 -3.00586,-10.77148l1.36914,-1.61719c2.297,3.578 3.63672,7.82867 3.63672,12.38867c0,12.683 -10.317,23 -23,23c-12.683,0 -23,-10.317 -23,-23c0,-12.683 10.317,-23 23,-23c5.935,0 11.3525,2.25984 15.4375,5.96484zM44.76367,9.04688l-20.67969,24.40039l-9.66602,-9.01562l1.36328,-1.46289l8.13281,7.58594l19.32227,-22.80078z" id="strokeMainSVG" stroke="#000000" stroke-width="4" stroke-linejoin="round"></path><g transform="scale(5.12,5.12)" stroke="none" stroke-width="1" stroke-linejoin="miter"><path d="M25,2c-12.683,0 -23,10.317 -23,23c0,12.683 10.317,23 23,23c12.683,0 23,-10.317 23,-23c0,-4.56 -1.33972,-8.81067 -3.63672,-12.38867l-1.36914,1.61719c1.895,3.154 3.00586,6.83148 3.00586,10.77148c0,11.579 -9.421,21 -21,21c-11.579,0 -21,-9.421 -21,-21c0,-11.579 9.421,-21 21,-21c5.443,0 10.39391,2.09977 14.12891,5.50977l1.30859,-1.54492c-4.085,-3.705 -9.5025,-5.96484 -15.4375,-5.96484zM43.23633,7.75391l-19.32227,22.80078l-8.13281,-7.58594l-1.36328,1.46289l9.66602,9.01563l20.67969,-24.40039z"></path></g></g></svg>